<svg width="114" height="36" viewBox="0 0 114 36" fill="none" xmlns="http://www.w3.org/2000/svg">
<path d="M7.4 6.5L9.092 8.18211M12.908 8.18211L14.6 6.5M8.3 11.09V10.1953C8.28368 9.83267 8.34143 9.47055 8.46976 9.13075C8.59809 8.79095 8.79434 8.48053 9.04667 8.21821C9.29899 7.95589 9.60216 7.74711 9.93788 7.60447C10.2736 7.46183 10.6349 7.3883 11 7.3883C11.3651 7.3883 11.7264 7.46183 12.0621 7.60447C12.3978 7.74711 12.701 7.95589 12.9533 8.21821C13.2057 8.48053 13.4019 8.79095 13.5302 9.13075C13.6586 9.47055 13.7163 9.83267 13.7 10.1953V11.09M11 22.6053C8.03 22.6053 5.6 20.1895 5.6 17.2368V14.5526C5.6 13.6034 5.97928 12.6931 6.65442 12.0219C7.32955 11.3508 8.24522 10.9737 9.2 10.9737H12.8C13.7548 10.9737 14.6705 11.3508 15.3456 12.0219C16.0207 12.6931 16.4 13.6034 16.4 14.5526V17.2368C16.4 20.1895 13.97 22.6053 11 22.6053ZM11 22.6053V14.5526M6.077 12.7632C4.34 12.5842 2.9 11.0632 2.9 9.18421M5.6 16.3421H2M2.9 23.5C2.9 21.6211 4.43 20.0105 6.32 19.9211M19.073 9.18421C19.073 11.0632 17.633 12.5842 15.923 12.7632M20 16.3421H16.4M15.68 19.9211C17.57 20.0105 19.1 21.6211 19.1 23.5" stroke="#9AE92B" stroke-width="3" stroke-linecap="round" stroke-linejoin="round"/>
<path d="M29.125 24V6.54545H33.8295V13.1932H33.8977C34.0682 12.75 34.3182 12.3437 34.6477 11.9744C34.9773 11.5994 35.3864 11.3011 35.875 11.0795C36.3636 10.8523 36.9318 10.7386 37.5795 10.7386C38.4432 10.7386 39.2642 10.9688 40.0426 11.429C40.8267 11.8892 41.4631 12.6136 41.9517 13.6023C42.446 14.5909 42.6932 15.875 42.6932 17.4545C42.6932 18.9659 42.4574 20.2187 41.9858 21.2131C41.5199 22.2074 40.8949 22.9489 40.1108 23.4375C39.3324 23.9261 38.4773 24.1705 37.5455 24.1705C36.9318 24.1705 36.3835 24.071 35.9006 23.8722C35.4233 23.6676 35.0142 23.392 34.6733 23.0455C34.3381 22.6932 34.0795 22.2955 33.8977 21.8523H33.7955V24H29.125ZM33.7273 17.4545C33.7273 18.0909 33.8097 18.642 33.9744 19.108C34.1449 19.5682 34.3835 19.9261 34.6903 20.1818C35.0028 20.4318 35.375 20.5568 35.8068 20.5568C36.2386 20.5568 36.6051 20.4347 36.9062 20.1903C37.2131 19.9403 37.446 19.5852 37.6051 19.125C37.7699 18.6591 37.8523 18.1023 37.8523 17.4545C37.8523 16.8068 37.7699 16.2528 37.6051 15.7926C37.446 15.3267 37.2131 14.9716 36.9062 14.7273C36.6051 14.4773 36.2386 14.3523 35.8068 14.3523C35.375 14.3523 35.0028 14.4773 34.6903 14.7273C34.3835 14.9716 34.1449 15.3267 33.9744 15.7926C33.8097 16.2528 33.7273 16.8068 33.7273 17.4545ZM53.1506 18.2727V10.9091H57.8551V24H53.3892V21.5114H53.2528C52.9688 22.3466 52.4716 23 51.7614 23.4716C51.0511 23.9375 50.2074 24.1705 49.2301 24.1705C48.3153 24.1705 47.5142 23.9602 46.8267 23.5398C46.1449 23.1193 45.6136 22.5398 45.233 21.8011C44.858 21.0625 44.6676 20.2159 44.6619 19.2614V10.9091H49.3665V18.2727C49.3722 18.9205 49.5369 19.429 49.8608 19.7983C50.1903 20.1676 50.6506 20.3523 51.2415 20.3523C51.6335 20.3523 51.9716 20.2699 52.2557 20.1051C52.5455 19.9347 52.767 19.696 52.9205 19.3892C53.0795 19.0767 53.1563 18.7045 53.1506 18.2727ZM66.5547 29.1818C65.2422 29.1818 64.1172 28.9943 63.1797 28.6193C62.2479 28.25 61.5234 27.7386 61.0064 27.0852C60.495 26.4375 60.2081 25.6932 60.1456 24.8523H64.6797C64.7251 25.1307 64.8388 25.3551 65.0206 25.5256C65.2024 25.696 65.4354 25.8182 65.7195 25.892C66.0092 25.9716 66.3331 26.0114 66.6911 26.0114C67.299 26.0114 67.8018 25.8636 68.1996 25.5682C68.603 25.2727 68.8047 24.7386 68.8047 23.9659V21.75H68.6683C68.4979 22.1932 68.2365 22.571 67.8842 22.8835C67.532 23.1903 67.1087 23.4261 66.6143 23.5909C66.12 23.75 65.5774 23.8295 64.9865 23.8295C64.0547 23.8295 63.1967 23.6136 62.4126 23.1818C61.6342 22.75 61.0092 22.0653 60.5376 21.1278C60.0717 20.1903 59.8388 18.9659 59.8388 17.4545C59.8388 15.875 60.0831 14.5909 60.5717 13.6023C61.0661 12.6136 61.7024 11.8892 62.4808 11.429C63.2649 10.9688 64.0888 10.7386 64.9524 10.7386C65.6001 10.7386 66.1683 10.8523 66.657 11.0795C67.1456 11.3011 67.5547 11.5994 67.8842 11.9744C68.2138 12.3437 68.4638 12.75 68.6342 13.1932H68.7365V10.9091H73.4411V23.9659C73.4411 25.0739 73.1541 26.0142 72.5803 26.7869C72.0121 27.5653 71.2109 28.1591 70.1768 28.5682C69.1428 28.9773 67.9354 29.1818 66.5547 29.1818ZM66.7251 20.4886C67.157 20.4886 67.5263 20.3693 67.8331 20.1307C68.1456 19.8864 68.3842 19.5398 68.549 19.0909C68.7195 18.6364 68.8047 18.0909 68.8047 17.4545C68.8047 16.8068 68.7195 16.2528 68.549 15.7926C68.3842 15.3267 68.1456 14.9716 67.8331 14.7273C67.5263 14.4773 67.157 14.3523 66.7251 14.3523C66.2933 14.3523 65.924 14.4773 65.6172 14.7273C65.3161 14.9716 65.0831 15.3267 64.9183 15.7926C64.7592 16.2528 64.6797 16.8068 64.6797 17.4545C64.6797 18.1023 64.7592 18.6534 64.9183 19.108C65.0831 19.5568 65.3161 19.9006 65.6172 20.1392C65.924 20.3722 66.2933 20.4886 66.7251 20.4886ZM82.1406 29.1818C80.8281 29.1818 79.7031 28.9943 78.7656 28.6193C77.8338 28.25 77.1094 27.7386 76.5923 27.0852C76.081 26.4375 75.794 25.6932 75.7315 24.8523H80.2656C80.3111 25.1307 80.4247 25.3551 80.6065 25.5256C80.7884 25.696 81.0213 25.8182 81.3054 25.892C81.5952 25.9716 81.919 26.0114 82.277 26.0114C82.8849 26.0114 83.3878 25.8636 83.7855 25.5682C84.1889 25.2727 84.3906 24.7386 84.3906 23.9659V21.75H84.2543C84.0838 22.1932 83.8224 22.571 83.4702 22.8835C83.1179 23.1903 82.6946 23.4261 82.2003 23.5909C81.706 23.75 81.1634 23.8295 80.5724 23.8295C79.6406 23.8295 78.7827 23.6136 77.9986 23.1818C77.2202 22.75 76.5952 22.0653 76.1236 21.1278C75.6577 20.1903 75.4247 18.9659 75.4247 17.4545C75.4247 15.875 75.669 14.5909 76.1577 13.6023C76.652 12.6136 77.2884 11.8892 78.0668 11.429C78.8509 10.9688 79.6747 10.7386 80.5384 10.7386C81.1861 10.7386 81.7543 10.8523 82.2429 11.0795C82.7315 11.3011 83.1406 11.5994 83.4702 11.9744C83.7997 12.3437 84.0497 12.75 84.2202 13.1932H84.3224V10.9091H89.027V23.9659C89.027 25.0739 88.7401 26.0142 88.1662 26.7869C87.598 27.5653 86.7969 28.1591 85.7628 28.5682C84.7287 28.9773 83.5213 29.1818 82.1406 29.1818ZM82.3111 20.4886C82.7429 20.4886 83.1122 20.3693 83.419 20.1307C83.7315 19.8864 83.9702 19.5398 84.1349 19.0909C84.3054 18.6364 84.3906 18.0909 84.3906 17.4545C84.3906 16.8068 84.3054 16.2528 84.1349 15.7926C83.9702 15.3267 83.7315 14.9716 83.419 14.7273C83.1122 14.4773 82.7429 14.3523 82.3111 14.3523C81.8793 14.3523 81.5099 14.4773 81.2031 14.7273C80.902 14.9716 80.669 15.3267 80.5043 15.7926C80.3452 16.2528 80.2656 16.8068 80.2656 17.4545C80.2656 18.1023 80.3452 18.6534 80.5043 19.108C80.669 19.5568 80.902 19.9006 81.2031 20.1392C81.5099 20.3722 81.8793 20.4886 82.3111 20.4886ZM96.1243 6.54545V24H91.4197V6.54545H96.1243ZM104.794 24.2386C103.396 24.2386 102.192 23.9716 101.18 23.4375C100.175 22.8977 99.3991 22.125 98.8537 21.1193C98.3139 20.108 98.044 18.8977 98.044 17.4886C98.044 16.1364 98.3168 14.9545 98.8622 13.9432C99.4077 12.9318 100.178 12.1449 101.172 11.5824C102.166 11.0199 103.339 10.7386 104.692 10.7386C105.68 10.7386 106.575 10.892 107.376 11.1989C108.178 11.5057 108.862 11.9517 109.43 12.5369C109.999 13.1165 110.436 13.821 110.743 14.6506C111.05 15.4801 111.203 16.4148 111.203 17.4545V18.5455H99.5099V15.9545H106.874C106.868 15.5795 106.771 15.25 106.584 14.9659C106.402 14.6761 106.155 14.4517 105.842 14.2926C105.536 14.1278 105.186 14.0455 104.794 14.0455C104.413 14.0455 104.064 14.1278 103.746 14.2926C103.428 14.4517 103.172 14.6733 102.979 14.9574C102.791 15.2415 102.692 15.5739 102.68 15.9545V18.75C102.68 19.1705 102.768 19.5455 102.945 19.875C103.121 20.2045 103.374 20.4631 103.703 20.6506C104.033 20.8381 104.43 20.9318 104.896 20.9318C105.22 20.9318 105.516 20.8864 105.783 20.7955C106.055 20.7045 106.288 20.5739 106.482 20.4034C106.675 20.2273 106.817 20.017 106.908 19.7727H111.203C111.055 20.6818 110.706 21.4716 110.155 22.142C109.604 22.8068 108.874 23.3239 107.964 23.6932C107.061 24.0568 106.004 24.2386 104.794 24.2386Z" fill="#F6FDED"/>
<path d="M2 35L5.02959 33.4921C5.64492 33.1858 6.3744 33.217 6.96137 33.5746L8.34361 34.4168C8.93828 34.7791 9.67858 34.806 10.298 34.4878L12.2809 33.4694C12.8545 33.1747 13.5349 33.1747 14.1085 33.4694L16.1867 34.5368C16.7536 34.828 17.4253 34.8315 17.9952 34.5464L20.1315 33.4778C20.7285 33.1792 21.435 33.1981 22.0151 33.5281L23.6139 34.4375C24.227 34.7863 24.9785 34.7863 25.5916 34.4375L27.1298 33.5625C27.743 33.2137 28.4945 33.2137 29.1076 33.5625L30.5652 34.3916C31.2211 34.7647 32.0312 34.7369 32.6599 34.3196L33.6232 33.6804C34.2519 33.2631 35.062 33.2353 35.7179 33.6084L37.1755 34.4375C37.7886 34.7863 38.5401 34.7863 39.1533 34.4375L40.6915 33.5625C41.3046 33.2137 42.0561 33.2137 42.6692 33.5625L44.2075 34.4375C44.8206 34.7863 45.5721 34.7863 46.1852 34.4375L47.6428 33.6084C48.2987 33.2353 49.1088 33.2631 49.7376 33.6804L50.7008 34.3196C51.3295 34.7369 52.1396 34.7647 52.7956 34.3916L54.2531 33.5625C54.8663 33.2137 55.6178 33.2137 56.2309 33.5625L57.7691 34.4375C58.3822 34.7863 59.1337 34.7863 59.7469 34.4375L61.2851 33.5625C61.8982 33.2137 62.6497 33.2137 63.2628 33.5625L64.8011 34.4375C65.4142 34.7863 66.1657 34.7863 66.7788 34.4375L68.2364 33.6084C68.8923 33.2353 69.7024 33.2631 70.3312 33.6804L71.2137 34.2661C71.8839 34.7108 72.7553 34.7108 73.4255 34.2661L74.3081 33.6804C74.9369 33.2631 75.7469 33.2353 76.4029 33.6084L77.8604 34.4375C78.4736 34.7863 79.2251 34.7863 79.8382 34.4375L81.3764 33.5625C81.9895 33.2137 82.741 33.2137 83.3542 33.5625L84.8924 34.4375C85.5055 34.7863 86.257 34.7863 86.8702 34.4375L88.4084 33.5625C89.0215 33.2137 89.773 33.2137 90.3861 33.5625L91.9244 34.4375C92.5375 34.7863 93.289 34.7863 93.9021 34.4375L95.4403 33.5625C96.0535 33.2137 96.805 33.2137 97.4181 33.5625L98.8757 34.3916C99.5316 34.7647 100.342 34.7369 100.97 34.3196L101.853 33.7339C102.523 33.2892 103.395 33.2892 104.065 33.7339L104.867 34.2661C105.537 34.7108 106.408 34.7108 107.079 34.2661L107.88 33.7339C108.551 33.2892 109.422 33.2892 110.092 33.7339L112 35" stroke="#FF0000" stroke-linecap="round"/>
</svg>
