<svg width="156" height="50" viewBox="0 0 156 50" fill="none" xmlns="http://www.w3.org/2000/svg">
<g filter="url(#filter0_d_115_68)">
<rect width="156" height="48" rx="10" fill="#211E29"/>
<path d="M20.875 16H24.125M22.5 25.6L24.9375 23.2M29 25.6C29 29.1346 26.0899 32 22.5 32C18.9101 32 16 29.1346 16 25.6C16 22.0654 18.9101 19.2 22.5 19.2C26.0899 19.2 29 22.0654 29 25.6Z" stroke="#E5AFB9" stroke-width="2" stroke-linecap="round" stroke-linejoin="round"/>
<path d="M51.8821 31.3196C50.6605 31.3149 49.6094 31.0142 48.7287 30.4176C47.8527 29.821 47.178 28.9569 46.7045 27.8253C46.2358 26.6937 46.0038 25.3324 46.0085 23.7415C46.0085 22.1553 46.2429 20.8035 46.7116 19.6861C47.1851 18.5687 47.8598 17.7187 48.7358 17.1364C49.6165 16.5492 50.6652 16.2557 51.8821 16.2557C53.099 16.2557 54.1454 16.5492 55.0213 17.1364C55.902 17.7235 56.5791 18.5758 57.0526 19.6932C57.526 20.8059 57.7604 22.1553 57.7557 23.7415C57.7557 25.3371 57.5189 26.7008 57.0455 27.8324C56.5767 28.964 55.9044 29.8281 55.0284 30.4247C54.1525 31.0213 53.1037 31.3196 51.8821 31.3196ZM51.8821 28.7699C52.7154 28.7699 53.3807 28.3509 53.8778 27.5128C54.375 26.6747 54.6212 25.4176 54.6165 23.7415C54.6165 22.6383 54.5028 21.7197 54.2756 20.9858C54.053 20.2519 53.7358 19.7003 53.3239 19.331C52.9167 18.9616 52.4361 18.777 51.8821 18.777C51.0535 18.777 50.3906 19.1913 49.8935 20.0199C49.3963 20.8485 49.1454 22.089 49.1406 23.7415C49.1406 24.8589 49.2519 25.7917 49.4744 26.5398C49.7017 27.2831 50.0213 27.8419 50.4332 28.2159C50.8452 28.5852 51.3281 28.7699 51.8821 28.7699ZM65.6516 31.3196C64.43 31.3149 63.3789 31.0142 62.4982 30.4176C61.6223 29.821 60.9476 28.9569 60.4741 27.8253C60.0053 26.6937 59.7733 25.3324 59.7781 23.7415C59.7781 22.1553 60.0124 20.8035 60.4812 19.6861C60.9547 18.5687 61.6294 17.7187 62.5053 17.1364C63.386 16.5492 64.4348 16.2557 65.6516 16.2557C66.8685 16.2557 67.9149 16.5492 68.7908 17.1364C69.6715 17.7235 70.3486 18.5758 70.8221 19.6932C71.2956 20.8059 71.5299 22.1553 71.5252 23.7415C71.5252 25.3371 71.2885 26.7008 70.815 27.8324C70.3462 28.964 69.6739 29.8281 68.7979 30.4247C67.922 31.0213 66.8732 31.3196 65.6516 31.3196ZM65.6516 28.7699C66.485 28.7699 67.1502 28.3509 67.6474 27.5128C68.1445 26.6747 68.3907 25.4176 68.386 23.7415C68.386 22.6383 68.2724 21.7197 68.0451 20.9858C67.8226 20.2519 67.5053 19.7003 67.0934 19.331C66.6862 18.9616 66.2056 18.777 65.6516 18.777C64.823 18.777 64.1602 19.1913 63.663 20.0199C63.1658 20.8485 62.9149 22.089 62.9102 23.7415C62.9102 24.8589 63.0214 25.7917 63.244 26.5398C63.4712 27.2831 63.7908 27.8419 64.2028 28.2159C64.6147 28.5852 65.0977 28.7699 65.6516 28.7699ZM75.5149 29.3097C75.0462 29.3097 74.6437 29.1439 74.3075 28.8125C73.9761 28.4811 73.8104 28.0786 73.8104 27.6051C73.8104 27.1411 73.9761 26.7434 74.3075 26.4119C74.6437 26.0805 75.0462 25.9148 75.5149 25.9148C75.9695 25.9148 76.3672 26.0805 76.7081 26.4119C77.049 26.7434 77.2195 27.1411 77.2195 27.6051C77.2195 27.9176 77.139 28.2041 76.978 28.4645C76.8217 28.7202 76.6158 28.9261 76.3601 29.0824C76.1044 29.2339 75.8227 29.3097 75.5149 29.3097ZM75.5149 22.1719C75.0462 22.1719 74.6437 22.0062 74.3075 21.6747C73.9761 21.3433 73.8104 20.9408 73.8104 20.4673C73.8104 20.0033 73.9761 19.608 74.3075 19.2812C74.6437 18.9498 75.0462 18.7841 75.5149 18.7841C75.9695 18.7841 76.3672 18.9498 76.7081 19.2812C77.049 19.608 77.2195 20.0033 77.2195 20.4673C77.2195 20.7846 77.139 21.0734 76.978 21.3338C76.8217 21.5895 76.6158 21.7931 76.3601 21.9446C76.1044 22.0961 75.8227 22.1719 75.5149 22.1719ZM85.3782 31.3196C84.1566 31.3149 83.1055 31.0142 82.2248 30.4176C81.3488 29.821 80.6741 28.9569 80.2006 27.8253C79.7319 26.6937 79.4999 25.3324 79.5046 23.7415C79.5046 22.1553 79.739 20.8035 80.2077 19.6861C80.6812 18.5687 81.3559 17.7187 82.2319 17.1364C83.1126 16.5492 84.1613 16.2557 85.3782 16.2557C86.5951 16.2557 87.6415 16.5492 88.5174 17.1364C89.3981 17.7235 90.0752 18.5758 90.5487 19.6932C91.0221 20.8059 91.2565 22.1553 91.2518 23.7415C91.2518 25.3371 91.015 26.7008 90.5415 27.8324C90.0728 28.964 89.4005 29.8281 88.5245 30.4247C87.6486 31.0213 86.5998 31.3196 85.3782 31.3196ZM85.3782 28.7699C86.2115 28.7699 86.8768 28.3509 87.3739 27.5128C87.8711 26.6747 88.1173 25.4176 88.1126 23.7415C88.1126 22.6383 87.9989 21.7197 87.7717 20.9858C87.5491 20.2519 87.2319 19.7003 86.82 19.331C86.4128 18.9616 85.9322 18.777 85.3782 18.777C84.5496 18.777 83.8867 19.1913 83.3896 20.0199C82.8924 20.8485 82.6415 22.089 82.6367 23.7415C82.6367 24.8589 82.748 25.7917 82.9705 26.5398C83.1978 27.2831 83.5174 27.8419 83.9293 28.2159C84.3413 28.5852 84.8242 28.7699 85.3782 28.7699ZM99.1477 31.3196C97.9261 31.3149 96.875 31.0142 95.9943 30.4176C95.1184 29.821 94.4437 28.9569 93.9702 27.8253C93.5014 26.6937 93.2694 25.3324 93.2741 23.7415C93.2741 22.1553 93.5085 20.8035 93.9773 19.6861C94.4508 18.5687 95.1255 17.7187 96.0014 17.1364C96.8821 16.5492 97.9309 16.2557 99.1477 16.2557C100.365 16.2557 101.411 16.5492 102.287 17.1364C103.168 17.7235 103.845 18.5758 104.318 19.6932C104.792 20.8059 105.026 22.1553 105.021 23.7415C105.021 25.3371 104.785 26.7008 104.311 27.8324C103.842 28.964 103.17 29.8281 102.294 30.4247C101.418 31.0213 100.369 31.3196 99.1477 31.3196ZM99.1477 28.7699C99.9811 28.7699 100.646 28.3509 101.143 27.5128C101.641 26.6747 101.887 25.4176 101.882 23.7415C101.882 22.6383 101.768 21.7197 101.541 20.9858C101.319 20.2519 101.001 19.7003 100.589 19.331C100.182 18.9616 99.7017 18.777 99.1477 18.777C98.3191 18.777 97.6563 19.1913 97.1591 20.0199C96.6619 20.8485 96.411 22.089 96.4062 23.7415C96.4062 24.8589 96.5175 25.7917 96.7401 26.5398C96.9673 27.2831 97.2869 27.8419 97.6989 28.2159C98.1108 28.5852 98.5938 28.7699 99.1477 28.7699ZM109.011 29.3097C108.542 29.3097 108.14 29.1439 107.804 28.8125C107.472 28.4811 107.306 28.0786 107.306 27.6051C107.306 27.1411 107.472 26.7434 107.804 26.4119C108.14 26.0805 108.542 25.9148 109.011 25.9148C109.466 25.9148 109.863 26.0805 110.204 26.4119C110.545 26.7434 110.716 27.1411 110.716 27.6051C110.716 27.9176 110.635 28.2041 110.474 28.4645C110.318 28.7202 110.112 28.9261 109.856 29.0824C109.6 29.2339 109.319 29.3097 109.011 29.3097ZM109.011 22.1719C108.542 22.1719 108.14 22.0062 107.804 21.6747C107.472 21.3433 107.306 20.9408 107.306 20.4673C107.306 20.0033 107.472 19.608 107.804 19.2812C108.14 18.9498 108.542 18.7841 109.011 18.7841C109.466 18.7841 109.863 18.9498 110.204 19.2812C110.545 19.608 110.716 20.0033 110.716 20.4673C110.716 20.7846 110.635 21.0734 110.474 21.3338C110.318 21.5895 110.112 21.7931 109.856 21.9446C109.6 22.0961 109.319 22.1719 109.011 22.1719ZM118.874 31.3196C117.653 31.3149 116.602 31.0142 115.721 30.4176C114.845 29.821 114.17 28.9569 113.697 27.8253C113.228 26.6937 112.996 25.3324 113.001 23.7415C113.001 22.1553 113.235 20.8035 113.704 19.6861C114.177 18.5687 114.852 17.7187 115.728 17.1364C116.609 16.5492 117.657 16.2557 118.874 16.2557C120.091 16.2557 121.138 16.5492 122.013 17.1364C122.894 17.7235 123.571 18.5758 124.045 19.6932C124.518 20.8059 124.753 22.1553 124.748 23.7415C124.748 25.3371 124.511 26.7008 124.038 27.8324C123.569 28.964 122.897 29.8281 122.021 30.4247C121.145 31.0213 120.096 31.3196 118.874 31.3196ZM118.874 28.7699C119.708 28.7699 120.373 28.3509 120.87 27.5128C121.367 26.6747 121.613 25.4176 121.609 23.7415C121.609 22.6383 121.495 21.7197 121.268 20.9858C121.045 20.2519 120.728 19.7003 120.316 19.331C119.909 18.9616 119.428 18.777 118.874 18.777C118.046 18.777 117.383 19.1913 116.886 20.0199C116.388 20.8485 116.138 22.089 116.133 23.7415C116.133 24.8589 116.244 25.7917 116.467 26.5398C116.694 27.2831 117.013 27.8419 117.425 28.2159C117.837 28.5852 118.32 28.7699 118.874 28.7699ZM132.644 31.3196C131.422 31.3149 130.371 31.0142 129.49 30.4176C128.614 29.821 127.94 28.9569 127.466 27.8253C126.998 26.6937 126.766 25.3324 126.77 23.7415C126.77 22.1553 127.005 20.8035 127.473 19.6861C127.947 18.5687 128.622 17.7187 129.498 17.1364C130.378 16.5492 131.427 16.2557 132.644 16.2557C133.861 16.2557 134.907 16.5492 135.783 17.1364C136.664 17.7235 137.341 18.5758 137.814 19.6932C138.288 20.8059 138.522 22.1553 138.517 23.7415C138.517 25.3371 138.281 26.7008 137.807 27.8324C137.338 28.964 136.666 29.8281 135.79 30.4247C134.914 31.0213 133.865 31.3196 132.644 31.3196ZM132.644 28.7699C133.477 28.7699 134.142 28.3509 134.64 27.5128C135.137 26.6747 135.383 25.4176 135.378 23.7415C135.378 22.6383 135.265 21.7197 135.037 20.9858C134.815 20.2519 134.498 19.7003 134.086 19.331C133.678 18.9616 133.198 18.777 132.644 18.777C131.815 18.777 131.152 19.1913 130.655 20.0199C130.158 20.8485 129.907 22.089 129.902 23.7415C129.902 24.8589 130.014 25.7917 130.236 26.5398C130.463 27.2831 130.783 27.8419 131.195 28.2159C131.607 28.5852 132.09 28.7699 132.644 28.7699Z" fill="#E2E0E7"/>
</g>
<defs>
<filter id="filter0_d_115_68" x="0" y="0" width="156" height="50" filterUnits="userSpaceOnUse" color-interpolation-filters="sRGB">
<feFlood flood-opacity="0" result="BackgroundImageFix"/>
<feColorMatrix in="SourceAlpha" type="matrix" values="0 0 0 0 0 0 0 0 0 0 0 0 0 0 0 0 0 0 127 0" result="hardAlpha"/>
<feOffset dy="2"/>
<feComposite in2="hardAlpha" operator="out"/>
<feColorMatrix type="matrix" values="0 0 0 0 0 0 0 0 0 0 0 0 0 0 0 0 0 0 0.3 0"/>
<feBlend mode="normal" in2="BackgroundImageFix" result="effect1_dropShadow_115_68"/>
<feBlend mode="normal" in="SourceGraphic" in2="effect1_dropShadow_115_68" result="shape"/>
</filter>
</defs>
</svg>
